<?xml version="1.0" encoding="UTF-8"?>
<svg version="1.1" xmlns="http://www.w3.org/2000/svg" width="256" height="256">
<path d="M0 0 C0 0.99 0 1.98 0 3 C-2.64 3.66 -5.28 4.32 -8 5 C-7.01 5.66 -6.02 6.32 -5 7 C-2.90178785 6.60061233 -2.90178785 6.60061233 -1 6 C0.9314382 7.9314382 0.16501237 11.38675714 0.18362427 13.97808838 C0.18232513 15.01141296 0.181026 16.04473755 0.1796875 17.109375 C0.17846893 18.20602478 0.17725037 19.30267456 0.17599487 20.43255615 C0.06534102 36.52275079 -0.87926495 52.58647668 -1.7376709 68.65039062 C-1.92100642 72.12089136 -2.09610843 75.59178836 -2.27134323 79.06270599 C-3.15034298 96.41269327 -4.06099508 113.72902479 -6 131 C-6.99 131.33 -7.98 131.66 -9 132 C-10.56544436 128.86911129 -10.00148591 125.57285977 -9.87890625 122.1484375 C-9.84348976 120.98738998 -9.84348976 120.98738998 -9.80735779 119.80288696 C-9.73068562 117.3267397 -9.64667684 114.85090241 -9.5625 112.375 C-9.50928285 110.69793192 -9.45654243 109.02084863 -9.40429688 107.34375 C-9.27506572 103.22896977 -9.13925354 99.11445275 -9 95 C-9.03758423 95.95084473 -9.03758423 95.95084473 -9.07592773 96.92089844 C-9.3199344 103.01387223 -9.58911343 109.10520794 -9.87646484 115.19628906 C-9.97675032 117.47233344 -10.05335181 119.74611893 -10.11328125 122.0234375 C-10.15839844 123.04695313 -10.20351562 124.07046875 -10.25 125.125 C-10.27578125 125.97320312 -10.3015625 126.82140625 -10.328125 127.6953125 C-12.32611543 134.54888431 -21.01529891 138.60551449 -26.5625 142.3125 C-27.62645996 143.02728516 -28.69041992 143.74207031 -29.78662109 144.47851562 C-31.54423742 145.65906497 -33.30254754 146.83852934 -35.06262207 148.01541138 C-39.38413875 150.90640081 -43.68499502 153.82639844 -47.97831726 156.75907898 C-51.21746304 158.96867667 -54.46413801 161.16704584 -57.71212769 163.36361694 C-59.31456529 164.45037223 -60.91414725 165.54135075 -62.51077271 166.6366272 C-64.77263717 168.1865888 -67.0449924 169.71988392 -69.3203125 171.25 C-69.99236221 171.71589035 -70.66441193 172.1817807 -71.35682678 172.66178894 C-75.5330884 175.44089525 -78.84721187 176.84126575 -84 177 C-87.03515625 175.33203125 -87.03515625 175.33203125 -90.0625 172.8125 C-90.61558838 172.36052246 -91.16867676 171.90854492 -91.73852539 171.44287109 C-93.51133665 169.98308466 -95.25671223 168.49486685 -97 167 C-98.15333496 166.02697515 -99.30697969 165.05431735 -100.4609375 164.08203125 C-103.39169846 161.59797233 -106.29543221 159.08408801 -109.19433594 156.56298828 C-111.06111561 154.94709815 -112.93887453 153.3448856 -114.8203125 151.74609375 C-115.44687744 151.21290527 -116.07344238 150.6797168 -116.71899414 150.13037109 C-117.90975766 149.11764651 -119.10157878 148.10616354 -120.29467773 147.09619141 C-120.83809814 146.6326123 -121.38151855 146.1690332 -121.94140625 145.69140625 C-122.64825562 145.09114624 -122.64825562 145.09114624 -123.36938477 144.47875977 C-123.90748779 143.99076904 -124.44559082 143.50277832 -125 143 C-125.8772876 142.30406738 -126.7545752 141.60813477 -127.65844727 140.89111328 C-130.89348799 136.8968111 -130.65785153 134.04187057 -130.5234375 129.05078125 C-130.5191423 128.14894608 -130.51484711 127.2471109 -130.51042175 126.31794739 C-130.48967147 123.31534863 -130.43265661 120.31459945 -130.375 117.3125 C-130.35211955 115.20753998 -130.33124503 113.10255731 -130.31225586 110.99755859 C-130.25307197 105.24523811 -130.16012585 99.49388134 -130.06109619 93.74212646 C-129.99767565 89.85763389 -129.94474923 85.97307628 -129.89599609 82.08837891 C-129.79550608 74.10041511 -129.68311166 66.11269061 -129.5625 58.125 C-129.53370758 56.18386826 -129.53370758 56.18386826 -129.5043335 54.20352173 C-129.4473936 50.53399386 -129.38324977 46.86467181 -129.31640625 43.1953125 C-129.29966354 42.0892012 -129.28292084 40.9830899 -129.26567078 39.84346008 C-129.24575577 38.83567001 -129.22584076 37.82787994 -129.20532227 36.78955078 C-129.18977798 35.90840607 -129.1742337 35.02726135 -129.15821838 34.11941528 C-129 32 -129 32 -128 30 C-127.01 30.33 -126.02 30.66 -125 31 C-125 30.34 -125 29.68 -125 29 C-126.65 29 -128.3 29 -130 29 C-129.67 27.35 -129.34 25.7 -129 24 C-102.74726255 18.04200538 -76.48940781 12.14074099 -50.0625 7 C-49.15618835 6.82308624 -48.24987671 6.64617249 -47.31610107 6.46389771 C-42.12454917 5.45375449 -36.92912987 4.46726682 -31.72833252 3.50585938 C-29.80201746 3.14870183 -27.87642212 2.7876519 -25.95135498 2.42382812 C-22.82229144 1.83447557 -19.69088077 1.25944576 -16.55859375 0.6875 C-15.11046043 0.41184204 -15.11046043 0.41184204 -13.6330719 0.13061523 C-8.79654256 -0.73601406 -4.85338201 -1.25575247 0 0 Z M-18 6 C-14 7 -14 7 -14 7 Z M-23 7 C-19 8 -19 8 -19 8 Z M-38.12890625 9.6875 C-39.02011169 9.86579849 -39.91131714 10.04409698 -40.82952881 10.22779846 C-43.74177587 10.8124839 -46.65215311 11.40593447 -49.5625 12 C-51.57377012 12.40637522 -53.58508238 12.81254188 -55.59643555 13.21850586 C-74.10257346 16.96792002 -92.5611742 20.93362384 -111 25 C-111 25.33 -111 25.66 -111 26 C-102.75995609 25.4343338 -94.78495362 24.16478857 -86.6875 22.5625 C-84.75571899 22.18520752 -84.75571899 22.18520752 -82.78491211 21.80029297 C-62.79083334 17.85661437 -42.89999577 13.38865164 -23 9 C-23 8.67 -23 8.34 -23 8 C-28.26170495 7.77157506 -33.00779197 8.63701581 -38.12890625 9.6875 Z M-7 22 C-7 29.92 -7 37.84 -7 46 C-6.67 46 -6.34 46 -6 46 C-6 38.08 -6 30.16 -6 22 C-6.33 22 -6.66 22 -7 22 Z M-121 28 C-117.7 27.67 -114.4 27.34 -111 27 C-111 26.67 -111 26.34 -111 26 C-115.30013434 25.80453935 -117.00889681 26.0044484 -121 28 Z M-126 106 C-126 110.29 -126 114.58 -126 119 C-125.67 119 -125.34 119 -125 119 C-125 114.71 -125 110.42 -125 106 C-125.33 106 -125.66 106 -126 106 Z M-127 124 C-127 126.31 -127 128.62 -127 131 C-126.67 131 -126.34 131 -126 131 C-126 128.69 -126 126.38 -126 124 C-126.33 124 -126.66 124 -127 124 Z " fill="#C9B17E" transform="translate(192,38)"/>
<path d="M0 0 C2.09874145 21.15095281 4.11030901 42.30296242 5.6875 63.5 C5.74789459 64.30542236 5.80828918 65.11084473 5.87051392 65.94067383 C6.26955722 71.29233895 6.64483867 76.64524876 7 82 C7.05012238 82.74457458 7.10024475 83.48914917 7.15188599 84.25628662 C7.89806369 95.55781749 8.12789262 106.80097273 8.0625 118.125 C8.05746181 119.6809881 8.05290311 121.23697783 8.04882812 122.79296875 C8.03803626 126.52868086 8.02090741 130.26432911 8 134 C7.19409424 134.28085449 6.38818848 134.56170898 5.55786133 134.85107422 C2.78059827 135.73895373 2.78059827 135.73895373 2.07421875 138.3828125 C1.94660156 139.28773438 1.81898438 140.19265625 1.6875 141.125 C1.54699219 142.03507813 1.40648437 142.94515625 1.26171875 143.8828125 C1.17535156 144.58148438 1.08898437 145.28015625 1 146 C-1.97 146.99 -1.97 146.99 -5 148 C-4.96970703 146.97342285 -4.93941406 145.9468457 -4.90820312 144.88916016 C-4.79374631 140.98640169 -4.68278923 137.08354948 -4.57275391 133.18066406 C-4.52516797 131.50908824 -4.47670136 129.83753719 -4.42724609 128.16601562 C-4.25835752 122.44448452 -4.11316254 116.72291621 -4 111 C-3.97789963 109.89365204 -3.97789963 109.89365204 -3.95535278 108.76495361 C-3.72828298 95.50534559 -4.53744586 82.34943389 -5.4375 69.125 C-5.57408016 67.04430441 -5.71015014 64.96357526 -5.84570312 62.8828125 C-6.47871887 53.2479616 -7.13056662 43.61689199 -8 34 C-7.93941406 34.96107666 -7.87882812 35.92215332 -7.81640625 36.91235352 C-6.25581049 62.42747571 -5.79862077 87.90352592 -5.81152344 113.45899582 C-5.81250001 115.87502002 -5.81152626 118.29103779 -5.81030273 120.70706177 C-5.8093509 124.55700004 -5.814993 128.40687427 -5.82623863 132.25679588 C-5.83005965 133.69011315 -5.83248226 135.12343492 -5.83341408 136.55675697 C-5.83555904 138.53768681 -5.84499083 140.51860469 -5.85473633 142.49951172 C-5.86045403 144.17241776 -5.86045403 144.17241776 -5.86628723 145.87911987 C-5.9997722 148.994683 -6.42056911 151.93864974 -7 155 C-8.98 155.33 -10.96 155.66 -13 156 C-12.99777939 155.01425995 -12.99555878 154.0285199 -12.99327087 153.01290894 C-12.97271115 143.57449197 -12.95787367 134.13607973 -12.94818783 124.69764519 C-12.94304039 119.84903889 -12.9360974 115.00045111 -12.92456055 110.15185547 C-12.871839 87.41150007 -12.9972882 64.72150669 -14 42 C-13.99777939 42.6636557 -13.99555878 43.3273114 -13.99327087 44.01107788 C-13.69411717 137.79551314 -13.69411717 137.79551314 -17 163 C-18 164 -18 164 -20.5625 164.0625 C-21.366875 164.041875 -22.17125 164.02125 -23 164 C-23.19594014 157.50041153 -22.90157179 151.08830467 -22.34375 144.61328125 C-20.23274335 119.44670494 -19.73328928 94.42648185 -19.8125 69.1875 C-19.81506805 68.36432407 -19.81763611 67.54114815 -19.82028198 66.6930275 C-19.8545786 56.46181519 -19.91502654 46.23092079 -20 36 C-20.7495414 46.59951234 -21.09916076 57.17534258 -21.2109375 67.80078125 C-21.22403961 69.03906677 -21.23714172 70.27735229 -21.25064087 71.55316162 C-21.27750087 74.14096924 -21.30420063 76.72877853 -21.33074951 79.31658936 C-21.68675332 111.46446964 -23.29827015 143.15495031 -28 175 C-30.31 174.67 -32.62 174.34 -35 174 C-34.88724731 173.11368896 -34.88724731 173.11368896 -34.7722168 172.20947266 C-33.25985218 160.29117071 -31.78122294 148.36882177 -30.375 136.4375 C-30.25213623 135.4180127 -30.12927246 134.39852539 -30.00268555 133.34814453 C-28.37080644 119.34614946 -27.79091522 105.33045353 -27.4375 91.25 C-27.41632111 90.44415466 -27.39514221 89.63830933 -27.37332153 88.80804443 C-26.91712939 71.20502958 -26.89293789 53.60759912 -27 36 C-27.01981934 36.95326172 -27.03963867 37.90652344 -27.06005859 38.88867188 C-29.36650283 146.73300567 -29.36650283 146.73300567 -39 166 C-40.98 165.67 -42.96 165.34 -45 165 C-44.46016673 159.18179695 -43.54995641 153.60134759 -42.31417847 147.89311218 C-39.94735547 136.66954173 -38.38985711 125.53901843 -37.46875 114.11328125 C-37.40707767 113.3738069 -37.34540535 112.63433254 -37.28186417 111.87244987 C-35.76778561 93.65159201 -34.86692933 75.39929246 -33.99804688 57.1383667 C-33.66854191 50.24050071 -33.32758449 43.34319083 -32.9867897 36.44587517 C-32.87101558 34.08206576 -32.75832115 31.71812681 -32.64620972 29.35414124 C-32.25442529 21.22078919 -31.75310387 13.1093868 -31 5 C-27.06789969 4.28458835 -23.13519627 3.57260111 -19.2019043 2.86376953 C-17.86416924 2.62219575 -16.52660214 2.37968994 -15.18920898 2.13623047 C-13.26590774 1.78627963 -11.34194565 1.43996692 -9.41796875 1.09375 C-8.26063232 0.88427734 -7.1032959 0.67480469 -5.91088867 0.45898438 C-3 0 -3 0 0 0 Z M-10 7 C-10 9.64 -10 12.28 -10 15 C-9.67 15 -9.34 15 -9 15 C-9 12.36 -9 9.72 -9 7 C-9.33 7 -9.66 7 -10 7 Z M-2 44 C-1 48 -1 48 -1 48 Z M-1 55 C-1 57.31 -1 59.62 -1 62 C-0.67 62 -0.34 62 0 62 C0 59.69 0 57.38 0 55 C-0.33 55 -0.66 55 -1 55 Z M0 67 C0 69.97 0 72.94 0 76 C0.33 76 0.66 76 1 76 C1 73.03 1 70.06 1 67 C0.67 67 0.34 67 0 67 Z M1 80 C1 83.63 1 87.26 1 91 C1.33 91 1.66 91 2 91 C2 87.37 2 83.74 2 80 C1.67 80 1.34 80 1 80 Z M2 93 C2 106.2 2 119.4 2 133 C2.33 133 2.66 133 3 133 C3 119.8 3 106.6 3 93 C2.67 93 2.34 93 2 93 Z " fill="#FC4304" transform="translate(225,41)"/>
<path d="M0 0 C-0.03758423 0.96456116 -0.03758423 0.96456116 -0.07592773 1.9486084 C-2.52059811 60.89052275 -2.52059811 60.89052275 0.72460938 119.70556641 C0.98518412 122.82276115 1.04991402 125.87383724 1 129 C-0.32 129.33 -1.64 129.66 -3 130 C-5.0740185 123.83868982 -5.60343404 117.8391048 -6.0625 111.375 C-6.14483887 110.28646729 -6.22717773 109.19793457 -6.31201172 108.07641602 C-7.07119353 97.72673838 -7.58569261 87.36858756 -8 77 C-9.21397047 98.33119545 -9.1029822 119.64307589 -9 141 C-10.98 141.33 -12.96 141.66 -15 142 C-15 135.07 -15 128.14 -15 121 C-15.41572266 123.68962891 -15.41572266 123.68962891 -15.83984375 126.43359375 C-16.2055148 128.76826275 -16.57141186 131.10289636 -16.9375 133.4375 C-17.11990234 134.62150391 -17.30230469 135.80550781 -17.49023438 137.02539062 C-17.66748047 138.15009766 -17.84472656 139.27480469 -18.02734375 140.43359375 C-18.18968506 141.47572021 -18.35202637 142.51784668 -18.51928711 143.59155273 C-19 146 -19 146 -20 147 C-21.99958364 147.04080783 -24.00045254 147.04254356 -26 147 C-25.87955322 146.38141113 -25.75910645 145.76282227 -25.63500977 145.12548828 C-24.11537038 137.07792378 -22.98096834 128.99635004 -21.9375 120.875 C-21.84940063 120.19589569 -21.76130127 119.51679138 -21.67053223 118.81710815 C-20.34621468 108.55183218 -19.37410922 98.34754008 -19 88 C-19.08451416 88.76852295 -19.16902832 89.5370459 -19.25610352 90.32885742 C-22.21271416 116.31488981 -22.21271416 116.31488981 -26.4375 128.75 C-26.71343994 129.56235107 -26.98937988 130.37470215 -27.27368164 131.21166992 C-29.30133058 136.79924184 -31.98569074 141.88471642 -35 147 C-36.32 146.67 -37.64 146.34 -39 146 C-39 141.94629314 -38.71642176 141.12239476 -36.8125 137.8125 C-31.05223184 126.71743804 -28.52547077 114.31462182 -27 102 C-27.25692627 103.09671021 -27.25692627 103.09671021 -27.51904297 104.21557617 C-28.30035555 107.54050699 -29.08761486 110.86400225 -29.875 114.1875 C-30.14441406 115.33798828 -30.41382813 116.48847656 -30.69140625 117.67382812 C-31.08779297 119.34155273 -31.08779297 119.34155273 -31.4921875 121.04296875 C-31.73308105 122.06414795 -31.97397461 123.08532715 -32.22216797 124.13745117 C-32.96372337 126.86649608 -33.89330927 129.40032084 -35 132 C-37.31 131.67 -39.62 131.34 -42 131 C-41.38550897 127.70316638 -40.61092094 124.5490506 -39.58984375 121.35546875 C-39.32236328 120.51435547 -39.05488281 119.67324219 -38.77929688 118.80664062 C-38.36260742 117.51016602 -38.36260742 117.51016602 -37.9375 116.1875 C-37.65583984 115.30384766 -37.37417969 114.42019531 -37.08398438 113.50976562 C-36.39170818 111.33906909 -35.69697845 109.16919035 -35 107 C-35.30679688 107.61359375 -35.61359375 108.2271875 -35.9296875 108.859375 C-37.46484375 111.9296875 -37.46484375 111.9296875 -39 115 C-40.65 114.67 -42.3 114.34 -44 114 C-43.15465355 109.09699058 -41.58775794 104.45978726 -39.9921875 99.76171875 C-34.97534398 84.31351157 -33.87973624 68.26121725 -32.4375 52.1875 C-32.02227449 47.65990162 -31.60291029 43.13268981 -31.18359375 38.60546875 C-31.08412445 37.52256561 -30.98465515 36.43966248 -30.88217163 35.32394409 C-30.03773923 26.20211132 -29.06106802 17.09897117 -28 8 C-27.36054443 7.79020508 -26.72108887 7.58041016 -26.06225586 7.36425781 C-22.75295235 6.27683828 -19.47519418 5.19439762 -16.25 3.875 C-13.84670689 2.94038601 -11.52469663 2.50493933 -9 2 C-8.154375 1.649375 -7.30875 1.29875 -6.4375 0.9375 C-4 0 -4 0 0 0 Z M-21 24 C-21 26.97 -21 29.94 -21 33 C-20.67 33 -20.34 33 -20 33 C-20 30.03 -20 27.06 -20 24 C-20.33 24 -20.66 24 -21 24 Z M-26 33 C-25 35 -25 35 -25 35 Z M-16 35 C-15 38 -15 38 -15 38 Z M-22 39 C-22 42.63 -22 46.26 -22 50 C-21.67 50 -21.34 50 -21 50 C-21 46.37 -21 42.74 -21 39 C-21.33 39 -21.66 39 -22 39 Z M-27 45 C-26 49 -26 49 -26 49 Z M-17 50 C-17 53.63 -17 57.26 -17 61 C-16.67 61 -16.34 61 -16 61 C-16 57.37 -16 53.74 -16 50 C-16.33 50 -16.66 50 -17 50 Z M-23 53 C-23 56.63 -23 60.26 -23 64 C-22.67 64 -22.34 64 -22 64 C-22 60.37 -22 56.74 -22 53 C-22.33 53 -22.66 53 -23 53 Z M-28 56 C-27 60 -27 60 -27 60 Z M-24 65 C-24 68.63 -24 72.26 -24 76 C-23.67 76 -23.34 76 -23 76 C-23 72.37 -23 68.74 -23 65 C-23.33 65 -23.66 65 -24 65 Z M-29 66 C-29 67.65 -29 69.3 -29 71 C-28.67 71 -28.34 71 -28 71 C-28 69.35 -28 67.7 -28 66 C-28.33 66 -28.66 66 -29 66 Z M-30 75 C-30 76.65 -30 78.3 -30 80 C-29.67 80 -29.34 80 -29 80 C-29 78.35 -29 76.7 -29 75 C-29.33 75 -29.66 75 -30 75 Z M-25 77 C-25 80.3 -25 83.6 -25 87 C-24.67 87 -24.34 87 -24 87 C-24 83.7 -24 80.4 -24 77 C-24.33 77 -24.66 77 -25 77 Z M-31 84 C-30 87 -30 87 -30 87 Z M-32 90 C-31 93 -31 93 -31 93 Z M-33 95 C-32 98 -32 98 -32 98 Z M-34 99 C-33 102 -33 102 -33 102 Z " fill="#73B95F" transform="translate(62,73)"/>
<path d="M0 0 C-1.55401515 110.00015881 -1.55401515 110.00015881 -21 143 C-22.32 142.67 -23.64 142.34 -25 142 C-25 137.94629314 -24.71642176 137.12239476 -22.8125 133.8125 C-17.05223184 122.71743804 -14.52547077 110.31462182 -13 98 C-13.25692627 99.09671021 -13.25692627 99.09671021 -13.51904297 100.21557617 C-14.30035555 103.54050699 -15.08761486 106.86400225 -15.875 110.1875 C-16.14441406 111.33798828 -16.41382813 112.48847656 -16.69140625 113.67382812 C-17.08779297 115.34155273 -17.08779297 115.34155273 -17.4921875 117.04296875 C-17.73308105 118.06414795 -17.97397461 119.08532715 -18.22216797 120.13745117 C-18.96372337 122.86649608 -19.89330927 125.40032084 -21 128 C-23.31 127.67 -25.62 127.34 -28 127 C-27.38550897 123.70316638 -26.61092094 120.5490506 -25.58984375 117.35546875 C-25.32236328 116.51435547 -25.05488281 115.67324219 -24.77929688 114.80664062 C-24.36260742 113.51016602 -24.36260742 113.51016602 -23.9375 112.1875 C-23.65583984 111.30384766 -23.37417969 110.42019531 -23.08398438 109.50976562 C-22.39170818 107.33906909 -21.69697845 105.16919035 -21 103 C-21.30679687 103.61359375 -21.61359375 104.2271875 -21.9296875 104.859375 C-22.953125 106.90625 -23.9765625 108.953125 -25 111 C-26.65 110.67 -28.3 110.34 -30 110 C-29.15465355 105.09699058 -27.58775794 100.45978726 -25.9921875 95.76171875 C-20.97534398 80.31351157 -19.87973624 64.26121725 -18.4375 48.1875 C-18.02227449 43.65990162 -17.60291029 39.13268981 -17.18359375 34.60546875 C-17.08412445 33.52256561 -16.98465515 32.43966248 -16.88217163 31.32394409 C-16.03773923 22.20211132 -15.06106802 13.09897117 -14 4 C-2 0 -2 0 0 0 Z M-7 20 C-7 22.97 -7 25.94 -7 29 C-6.67 29 -6.34 29 -6 29 C-6 26.03 -6 23.06 -6 20 C-6.33 20 -6.66 20 -7 20 Z M-12 29 C-11 31 -11 31 -11 31 Z M-8 35 C-8 38.63 -8 42.26 -8 46 C-7.67 46 -7.34 46 -7 46 C-7 42.37 -7 38.74 -7 35 C-7.33 35 -7.66 35 -8 35 Z M-13 41 C-12 45 -12 45 -12 45 Z M-9 49 C-9 52.63 -9 56.26 -9 60 C-8.67 60 -8.34 60 -8 60 C-8 56.37 -8 52.74 -8 49 C-8.33 49 -8.66 49 -9 49 Z M-14 52 C-13 56 -13 56 -13 56 Z M-10 61 C-10 64.63 -10 68.26 -10 72 C-9.67 72 -9.34 72 -9 72 C-9 68.37 -9 64.74 -9 61 C-9.33 61 -9.66 61 -10 61 Z M-15 62 C-15 63.65 -15 65.3 -15 67 C-14.67 67 -14.34 67 -14 67 C-14 65.35 -14 63.7 -14 62 C-14.33 62 -14.66 62 -15 62 Z M-16 71 C-16 72.65 -16 74.3 -16 76 C-15.67 76 -15.34 76 -15 76 C-15 74.35 -15 72.7 -15 71 C-15.33 71 -15.66 71 -16 71 Z M-11 73 C-11 76.3 -11 79.6 -11 83 C-10.67 83 -10.34 83 -10 83 C-10 79.7 -10 76.4 -10 73 C-10.33 73 -10.66 73 -11 73 Z M-17 80 C-16 83 -16 83 -16 83 Z M-18 86 C-17 89 -17 89 -17 89 Z M-19 91 C-18 94 -18 94 -18 94 Z M-20 95 C-19 98 -19 98 -19 98 Z " fill="#BF59EA" transform="translate(48,77)"/>
<path d="M0 0 C0.52590061 120.02670152 0.52590061 120.02670152 -7 171 C-9.31 170.67 -11.62 170.34 -14 170 C-13.88724731 169.11368896 -13.88724731 169.11368896 -13.7722168 168.20947266 C-12.25985218 156.29117071 -10.78122294 144.36882177 -9.375 132.4375 C-9.25213623 131.4180127 -9.12927246 130.39852539 -9.00268555 129.34814453 C-7.37080644 115.34614946 -6.79091522 101.33045353 -6.4375 87.25 C-6.41632111 86.44415466 -6.39514221 85.63830933 -6.37332153 84.80804443 C-5.91712939 67.20502958 -5.89293789 49.60759912 -6 32 C-6.01981934 32.95326172 -6.03963867 33.90652344 -6.06005859 34.88867188 C-8.36650283 142.73300567 -8.36650283 142.73300567 -18 162 C-19.98 161.67 -21.96 161.34 -24 161 C-23.46016673 155.18179695 -22.54995641 149.60134759 -21.31417847 143.89311218 C-18.94735547 132.66954173 -17.38985711 121.53901843 -16.46875 110.11328125 C-16.40707767 109.3738069 -16.34540535 108.63433254 -16.28186417 107.87244987 C-14.76778561 89.65159201 -13.86692933 71.39929246 -12.99804688 53.1383667 C-12.66854191 46.24050071 -12.32758449 39.34319083 -11.9867897 32.44587517 C-11.87101558 30.08206576 -11.75832115 27.71812681 -11.64620972 25.35414124 C-11.25442529 17.22078919 -10.75310387 9.1093868 -10 1 C-6.58093768 0.27021695 -3.50129871 -0.10003711 0 0 Z " fill="#75B95D" transform="translate(204,45)"/>
<path d="M0 0 C2.09874145 21.15095281 4.11030901 42.30296242 5.6875 63.5 C5.74789459 64.30542236 5.80828918 65.11084473 5.87051392 65.94067383 C6.26955722 71.29233895 6.64483867 76.64524876 7 82 C7.05012238 82.74457458 7.10024475 83.48914917 7.15188599 84.25628662 C7.89806369 95.55781749 8.12789262 106.80097273 8.0625 118.125 C8.05746181 119.6809881 8.05290311 121.23697783 8.04882812 122.79296875 C8.03803626 126.52868086 8.02090741 130.26432911 8 134 C6.79114136 134.42128174 6.79114136 134.42128174 5.55786133 134.85107422 C2.78059827 135.73895373 2.78059827 135.73895373 2.07421875 138.3828125 C1.94660156 139.28773438 1.81898438 140.19265625 1.6875 141.125 C1.54699219 142.03507813 1.40648437 142.94515625 1.26171875 143.8828125 C1.17535156 144.58148438 1.08898437 145.28015625 1 146 C-1.97 146.99 -1.97 146.99 -5 148 C-4.96970703 146.97342285 -4.93941406 145.9468457 -4.90820312 144.88916016 C-4.79374631 140.98640169 -4.68278923 137.08354948 -4.57275391 133.18066406 C-4.52516797 131.50908824 -4.47670136 129.83753719 -4.42724609 128.16601562 C-3.85982011 108.94301289 -4.00944427 90.00654838 -5.3125 70.8125 C-5.44729977 68.76255083 -5.58181687 66.71258306 -5.71606445 64.66259766 C-6.72549368 49.40691376 -7.85833445 34.16083948 -9.08520508 18.92114258 C-9.14680817 18.14935165 -9.20841125 17.37756073 -9.2718811 16.5823822 C-9.43682053 14.52205857 -9.60441099 12.46194763 -9.7722168 10.40185547 C-9.96084541 7.58475885 -10.04761814 4.82129047 -10 2 C-3.375 0 -3.375 0 0 0 Z M-2 44 C-1 48 -1 48 -1 48 Z M-1 55 C-1 57.31 -1 59.62 -1 62 C-0.67 62 -0.34 62 0 62 C0 59.69 0 57.38 0 55 C-0.33 55 -0.66 55 -1 55 Z M0 67 C0 69.97 0 72.94 0 76 C0.33 76 0.66 76 1 76 C1 73.03 1 70.06 1 67 C0.67 67 0.34 67 0 67 Z M1 80 C1 83.63 1 87.26 1 91 C1.33 91 1.66 91 2 91 C2 87.37 2 83.74 2 80 C1.67 80 1.34 80 1 80 Z M2 93 C2 106.2 2 119.4 2 133 C2.33 133 2.66 133 3 133 C3 119.8 3 106.6 3 93 C2.67 93 2.34 93 2 93 Z " fill="#FCC504" transform="translate(225,41)"/>
<path d="M0 0 C1.65 0 3.3 0 5 0 C4.78051485 8.31363014 4.55456036 16.62705312 4.32132149 24.94030762 C4.21308836 28.8045343 4.10672453 32.6687894 4.00537109 36.53320312 C3.28954539 63.72981789 2.4022047 90.97014929 -0.875 118 C-1.04598287 119.4536943 -1.21696262 120.90738897 -1.38793945 122.36108398 C-5.38632642 155.77265284 -5.38632642 155.77265284 -8 161 C-9.98 160.67 -11.96 160.34 -14 160 C-13.46016673 154.18179695 -12.54995641 148.60134759 -11.31417847 142.89311218 C-8.94735547 131.66954173 -7.38985711 120.53901843 -6.46875 109.11328125 C-6.40707767 108.3738069 -6.34540535 107.63433254 -6.28186417 106.87244987 C-4.76778561 88.65159201 -3.86692933 70.39929246 -2.99804688 52.1383667 C-2.66854191 45.24050071 -2.32758449 38.34319083 -1.9867897 31.44587517 C-1.87101558 29.08206576 -1.75832115 26.71812681 -1.64620972 24.35414124 C-1.25442529 16.22078919 -0.75310387 8.1093868 0 0 Z " fill="#6E9CE1" transform="translate(194,46)"/>
<path d="M0 0 C1.2065625 0.0309375 1.2065625 0.0309375 2.4375 0.0625 C4.41292097 105.28225013 4.41292097 105.28225013 1.4375 148.125 C1.3545166 149.32141113 1.2715332 150.51782227 1.18603516 151.75048828 C0.56689563 159.93310437 0.56689563 159.93310437 -0.5625 161.0625 C-2.22867115 161.10313832 -3.89638095 161.105221 -5.5625 161.0625 C-5.75843958 154.56293018 -5.46423337 148.15078216 -4.90625 141.67578125 C-2.8464307 117.18095662 -2.27509261 92.81574378 -2.3125 68.25 C-2.31357156 66.72807822 -2.31462968 65.20615642 -2.31567383 63.68423462 C-2.33579393 46.02258236 -2.59929072 28.38586071 -3.30731201 10.73735046 C-3.3544635 9.47864639 -3.40161499 8.21994232 -3.45019531 6.9230957 C-3.49573547 5.81166702 -3.54127563 4.70023834 -3.5881958 3.55513 C-3.55301652 0.14255202 -3.41337523 0.08325305 0 0 Z " fill="#FC9003" transform="translate(207.5625,43.9375)"/>
<path d="M0 0 C-1.55401515 110.00015881 -1.55401515 110.00015881 -21 143 C-22.32 142.67 -23.64 142.34 -25 142 C-25 137.94629314 -24.71642176 137.12239476 -22.8125 133.8125 C-20.48677099 129.31257674 -18.82613257 124.83467786 -17.375 120 C-17.18139893 119.37971924 -16.98779785 118.75943848 -16.78833008 118.12036133 C-12.36062325 102.81903029 -11.22194226 86.67567596 -9.9375 70.875 C-9.85317719 69.86995422 -9.76885437 68.86490845 -9.68197632 67.82940674 C-8.29973543 51.32741192 -7.29174255 34.82158246 -6.59545898 18.27685547 C-6.56114777 17.48210815 -6.52683655 16.68736084 -6.4914856 15.86853027 C-6.42914448 14.40083551 -6.37039536 12.93298141 -6.31613159 11.46496582 C-6.16620976 7.88215025 -5.81967302 4.49339841 -5 1 C-2 0 -2 0 0 0 Z " fill="#6E9DE0" transform="translate(48,77)"/>
<path d="M0 0 C1.32 0 2.64 0 4 0 C4.22070882 17.25966336 3.63234228 34.46051936 2.88305664 51.69921875 C2.75236652 54.7113839 2.62735926 57.72369062 2.50805664 60.73632812 C1.8481827 77.38144853 0.96187221 93.97867372 -0.50390625 110.57421875 C-0.56584986 111.28207268 -0.62779346 111.98992661 -0.69161415 112.71923065 C-3.2161011 141.2161011 -3.2161011 141.2161011 -6 144 C-7.99958364 144.04080783 -10.00045254 144.04254356 -12 144 C-11.87810303 143.3618335 -11.75620605 142.72366699 -11.63061523 142.06616211 C-4.51343947 103.9839859 -3.10868657 65.0711416 -1.64599609 26.44335938 C-0.95777471 8.41971036 -0.95777471 8.41971036 0 0 Z " fill="#FBC503" transform="translate(48,76)"/>
<path d="M0 0 C2.09874145 21.15095281 4.11030901 42.30296242 5.6875 63.5 C5.74789459 64.30542236 5.80828918 65.11084473 5.87051392 65.94067383 C6.26955722 71.29233895 6.64483867 76.64524876 7 82 C7.05012238 82.74457458 7.10024475 83.48914917 7.15188599 84.25628662 C7.89806369 95.55781749 8.12789262 106.80097273 8.0625 118.125 C8.05746181 119.6809881 8.05290311 121.23697783 8.04882812 122.79296875 C8.03803626 126.52868086 8.02090741 130.26432911 8 134 C5.525 134.99 5.525 134.99 3 136 C1.80687193 132.4206158 1.94099661 129.24060624 2.02539062 125.52368164 C2.04851895 123.94268186 2.0702176 122.36166069 2.09069824 120.78062439 C2.10217392 119.93884077 2.1136496 119.09705715 2.12547302 118.22976494 C2.3881579 95.76442831 0.79044513 73.61607373 -1.24493408 51.25866699 C-1.76341657 45.52397032 -2.25934651 39.7872818 -2.75679779 34.0507288 C-3.14208489 29.60874068 -3.5310096 25.1672034 -3.93273926 20.72666931 C-4.00460953 19.92036575 -4.0764798 19.11406219 -4.15052795 18.2833252 C-4.28316195 16.79560196 -4.41803983 15.30807606 -4.55577087 13.82081604 C-4.93430444 9.53400508 -5.0575526 5.30247229 -5 1 C-3 0 -3 0 0 0 Z " fill="#BF5AEA" transform="translate(225,41)"/>
<path d="M0 0 C1.32 0 2.64 0 4 0 C3.97494385 0.64304077 3.9498877 1.28608154 3.92407227 1.9486084 C1.47940189 60.89052275 1.47940189 60.89052275 4.72460938 119.70556641 C4.98518412 122.82276115 5.04991402 125.87383724 5 129 C3.68 129.33 2.36 129.66 1 130 C-0.99063808 123.9988424 -1.63207432 118.1803983 -2.109375 111.890625 C-2.19346619 110.80106506 -2.27755737 109.71150513 -2.36419678 108.58892822 C-3.30094008 95.31585154 -3.30356037 82.04962366 -3.25 68.75 C-3.2478952 67.45113861 -3.24579041 66.15227722 -3.24362183 64.8140564 C-3.21261675 48.4620778 -2.98148126 32.14054353 -2.0625 15.8125 C-2.01911499 15.03588013 -1.97572998 14.25926025 -1.93103027 13.45910645 C-1.22133597 1.22133597 -1.22133597 1.22133597 0 0 Z " fill="#FC4203" transform="translate(58,73)"/>
<path d="M0 0 C0.99 0 1.98 0 3 0 C3.40616668 11.63410763 2.20535915 23.17388605 1.1875 34.75 C1.09629883 35.79913574 1.00509766 36.84827148 0.91113281 37.92919922 C-3.52895885 88.85003996 -3.52895885 88.85003996 -12 108 C-13.65 107.67 -15.3 107.34 -17 107 C-16.15465355 102.09699058 -14.58775794 97.45978726 -12.9921875 92.76171875 C-7.97534398 77.31351157 -6.87973624 61.26121725 -5.4375 45.1875 C-5.02227451 40.65990182 -4.60320785 36.13266212 -4.18359375 31.60546875 C-4.08339935 30.52184052 -3.98320496 29.43821228 -3.87997437 28.32174683 C-3.26242999 21.68549715 -2.62126275 15.05270742 -1.91015625 8.42578125 C-1.7937101 7.30153999 -1.7937101 7.30153999 -1.6749115 6.15458679 C-1.11836108 1.11836108 -1.11836108 1.11836108 0 0 Z " fill="#FC9103" transform="translate(35,80)"/>
<path d="M0 0 C0.99 0.33 1.98 0.66 3 1 C-0.79713958 5.75973421 -4.64403745 9.57316625 -9.625 13.0625 C-10.26687256 13.52237305 -10.90874512 13.98224609 -11.57006836 14.45605469 C-13.70626511 15.98100482 -15.85239563 17.49116543 -18 19 C-19.55080636 20.09762077 -21.10158689 21.19527804 -22.65234375 22.29296875 C-26.84303095 25.25080348 -31.05527067 28.17658661 -35.27197266 31.09716797 C-38.15728663 33.10970933 -41.02209372 35.14954403 -43.88671875 37.19140625 C-45.84075866 38.56565486 -47.79517694 39.93936563 -49.75 41.3125 C-50.65435791 41.96508789 -51.55871582 42.61767578 -52.49047852 43.29003906 C-57.78360804 46.97504804 -61.50879667 48.84149387 -68 49 C-66.68753141 45.95918816 -65.52511313 44.35389811 -62.75390625 42.54907227 C-62.09080444 42.11039322 -61.42770264 41.67171417 -60.74450684 41.21974182 C-60.02444458 40.75664108 -59.30438232 40.29354034 -58.5625 39.81640625 C-57.81440063 39.32418076 -57.06630127 38.83195526 -56.29553223 38.32481384 C-54.69625177 37.27349975 -53.09431331 36.22621998 -51.48999023 35.18261719 C-47.34533342 32.48588784 -43.22001653 29.75990863 -39.09375 27.03515625 C-38.29005981 26.50536163 -37.48636963 25.97556702 -36.6583252 25.42971802 C-30.84071855 21.58477494 -25.11839248 17.63194356 -19.5 13.5 C-18.82380615 13.0042749 -18.1476123 12.5085498 -17.45092773 11.99780273 C-16.21406403 11.08997397 -14.97761946 10.18157372 -13.74169922 9.27246094 C-10.87776439 7.18011046 -7.98539273 5.13404427 -5.0625 3.125 C-4.14597656 2.48820313 -3.22945313 1.85140625 -2.28515625 1.1953125 C-1.53105469 0.80085937 -0.77695313 0.40640625 0 0 Z " fill="#CDB581" transform="translate(180,171)"/>
<path d="M0 0 C0 0.66 0 1.32 0 2 C-0.969375 2.28875 -1.93875 2.5775 -2.9375 2.875 C-6.10664203 3.64214682 -6.10664203 3.64214682 -7 6 C-5.88625 5.95875 -4.7725 5.9175 -3.625 5.875 C0 6 0 6 2 8 C2.27922749 10.93188861 2.47143881 13.15390647 2 16 C0.3125 18 0.3125 18 -2 19 C-4.5 19.1875 -4.5 19.1875 -7 19 C-10.77097714 18.69423805 -10.77097714 18.69423805 -12.9375 20 C-15.51347882 21.24895943 -17.16864534 21.36299419 -20 21 C-22.34461647 19.29226252 -22.93725164 18.36518417 -23.43359375 15.4765625 C-23.43969318 11.02398123 -23.3895765 7.81031912 -21.4375 3.75 C-19 2 -19 2 -15.25 2.1875 C-14.1775 2.455625 -13.105 2.72375 -12 3 C-11.34 4.65 -10.68 6.3 -10 8 C-9.731875 7.05125 -9.46375 6.1025 -9.1875 5.125 C-7.3085539 0.180405 -4.91529567 -0.26569166 0 0 Z " fill="#C7AF7C" transform="translate(151,60)"/>
<path d="M0 0 C1 1 1 1 1.0625 4.5625 C1.041875 5.696875 1.02125 6.83125 1 8 C-29.66746604 15.16338302 -29.66746604 15.16338302 -38 15 C-38.66 13.68 -39.32 12.36 -40 11 C-37.86730675 7.77457356 -36.57576585 6.20686928 -32.88720703 4.8815918 C-31.68950684 4.65640869 -30.49180664 4.43122559 -29.2578125 4.19921875 C-28.61182098 4.07311722 -27.96582947 3.94701569 -27.30026245 3.8170929 C-25.9387783 3.55504309 -24.57540977 3.30261999 -23.21044922 3.05932617 C-21.13467306 2.68922466 -19.06568063 2.29181579 -16.99609375 1.88867188 C-5.55556932 -0.28268804 -5.55556932 -0.28268804 0 0 Z " fill="#CDB581" transform="translate(233,29)"/>
<path d="M0 0 C1 3 1 3 0.31689453 5.08544922 C-1.30823888 7.44812927 -2.34745864 7.82593038 -5.0703125 8.6328125 C-5.885 8.88160156 -6.6996875 9.13039063 -7.5390625 9.38671875 C-8.81910156 9.75216797 -8.81910156 9.75216797 -10.125 10.125 C-10.95515625 10.37636719 -11.7853125 10.62773438 -12.640625 10.88671875 C-27.47076183 15.32646191 -27.47076183 15.32646191 -34 15 C-34.75 12.25 -34.75 12.25 -35 9 C-32.69025145 5.39706887 -29.97805483 4.55125355 -26.0078125 3.55078125 C-24.05010842 3.12294741 -22.08895253 2.71066769 -20.125 2.3125 C-18.65353516 1.99442383 -18.65353516 1.99442383 -17.15234375 1.66992188 C-14.43907772 1.0895539 -11.72188605 0.53827144 -9 0 C-7.84242187 -0.23332031 -6.68484375 -0.46664062 -5.4921875 -0.70703125 C-3 -1 -3 -1 0 0 Z " fill="#CDB581" transform="translate(61,65)"/>
<path d="M0 0 C2.4375 2.0625 2.4375 2.0625 4 4 C4.433125 3.34 4.86625 2.68 5.3125 2 C5.869375 1.34 6.42625 0.68 7 0 C7.99 0 8.98 0 10 0 C10 6.6 10 13.2 10 20 C9.34 20 8.68 20 8 20 C7.67 14.72 7.34 9.44 7 4 C6.01 5.32 5.02 6.64 4 8 C3.01 7.67 2.02 7.34 1 7 C0.67 6.34 0.34 5.68 0 5 C-0.33 10.28 -0.66 15.56 -1 21 C-4.3 21 -7.6 21 -11 21 C-12.1482685 18.703463 -12.11561175 17.41686833 -12.09765625 14.8671875 C-12.09443359 14.06152344 -12.09121094 13.25585938 -12.08789062 12.42578125 C-12.07951172 11.58402344 -12.07113281 10.74226562 -12.0625 9.875 C-12.05798828 9.02550781 -12.05347656 8.17601562 -12.04882812 7.30078125 C-12.03702874 5.20049091 -12.01909306 3.1002367 -12 1 C-7.50680135 -0.98841381 -4.84109824 -1.23227955 0 0 Z " fill="#C7AF7C" transform="translate(106,137)"/>
<path d="M0 0 C4.336932 1.39428897 6.6973368 3.40122929 9.8125 6.6875 C14.04102173 11.04039002 18.37081335 15.0823809 23 19 C24.03542765 19.88770437 25.07056019 20.77575302 26.10546875 21.6640625 C31.46776526 26.24930486 36.79183536 30.77252521 42.609375 34.78125 C44 36 44 36 45 39 C37.45592464 39 33.47924755 34.77658825 28 30 C26.89121411 29.07195455 25.78044466 28.14627514 24.66796875 27.22265625 C18.63640414 22.1827999 12.81341555 16.99239055 7.25 11.4375 C6.74871582 10.93702148 6.24743164 10.43654297 5.73095703 9.92089844 C0 4.10017703 0 4.10017703 0 0 Z " fill="#CDB581" transform="translate(62,179)"/>
<path d="M0 0 C2.0625 0.4375 2.0625 0.4375 4 1 C4 1.66 4 2.32 4 3 C4.66 3 5.32 3 6 3 C6 2.01 6 1.02 6 0 C7.32 0 8.64 0 10 0 C10 1.98 10 3.96 10 6 C11.32 6 12.64 6 14 6 C14 7.65 14 9.3 14 11 C12.02 11.99 12.02 11.99 10 13 C10 14.65 10 16.3 10 18 C8.0625 17.6875 8.0625 17.6875 6 17 C5.67 16.01 5.34 15.02 5 14 C4.34 14 3.68 14 3 14 C2.67 14.99 2.34 15.98 2 17 C0.68 16.67 -0.64 16.34 -2 16 C-1.67 14.68 -1.34 13.36 -1 12 C-2.32 11.34 -3.64 10.68 -5 10 C-4.67 8.68 -4.34 7.36 -4 6 C-2.68 5.67 -1.36 5.34 0 5 C-0.2784375 4.0409375 -0.2784375 4.0409375 -0.5625 3.0625 C-0.706875 2.381875 -0.85125 1.70125 -1 1 C-0.67 0.67 -0.34 0.34 0 0 Z " fill="#604825" transform="translate(107,190)"/>
<path d="M0 0 C0.7940625 -0.01417969 1.588125 -0.02835937 2.40625 -0.04296875 C4.5 0.1875 4.5 0.1875 6.5 2.1875 C6.4375 4.5625 6.4375 4.5625 5.5 7.1875 C1.28378378 11.1875 1.28378378 11.1875 -1.5 11.1875 C-0.571875 12.7653125 -0.571875 12.7653125 0.375 14.375 C2.01579108 17.23765677 3.36984453 20.07957246 4.5 23.1875 C2.16666667 20.85416667 -0.16666667 18.52083333 -2.5 16.1875 C-2.83 18.8275 -3.16 21.4675 -3.5 24.1875 C-4.49 24.1875 -5.48 24.1875 -6.5 24.1875 C-6.5 16.5975 -6.5 9.0075 -6.5 1.1875 C-4.14653604 0.01076802 -2.6193967 0.02126134 0 0 Z " fill="#6A522E" transform="translate(152.5,85.8125)"/>
<path d="M0 0 C2.9375 0.5 2.9375 0.5 4.8125 1.5 C6.61250988 4.70001757 6.34460533 7.96025369 5.9375 11.5 C5.0625 14.4375 5.0625 14.4375 3.9375 16.5 C1.13879973 17.89935013 -0.96748792 17.75265405 -4.0625 17.5 C-6.17089852 15.92612505 -6.95674532 15.00876576 -7.49609375 12.4140625 C-7.50287111 8.44253139 -7.33171137 6.0073599 -5.4375 2.4375 C-3.0625 0.5 -3.0625 0.5 0 0 Z " fill="#A28A5D" transform="translate(96.0625,68.5)"/>
<path d="M0 0 C-0.33 0.66 -0.66 1.32 -1 2 C-2.32 2 -3.64 2 -5 2 C-5 7.94 -5 13.88 -5 20 C-5.66 20 -6.32 20 -7 20 C-7 14.39 -7 8.78 -7 3 C-8.65 3 -10.3 3 -12 3 C-12 8.61 -12 14.22 -12 20 C-13.32 20.33 -14.64 20.66 -16 21 C-17.65 18.03 -19.3 15.06 -21 12 C-21.33 15.3 -21.66 18.6 -22 22 C-22.66 22 -23.32 22 -24 22 C-24 16.06 -24 10.12 -24 4 C-21 5 -21 5 -19.39453125 7.72265625 C-17.9296875 10.81510417 -16.46484375 13.90755208 -15 17 C-14.67 12.05 -14.34 7.1 -14 2 C-9.15758367 0.66416101 -5.06562383 -0.25328119 0 0 Z " fill="#654D2A" transform="translate(127,63)"/>
<path d="M0 0 C0.99 0.66 1.98 1.32 3 2 C2.65930765 5.15140423 2.41923159 6.60781561 0.0625 8.8125 C-2 10 -2 10 -4 10 C-3.566875 10.62648437 -3.13375 11.25296875 -2.6875 11.8984375 C-2.130625 12.71570313 -1.57375 13.53296875 -1 14.375 C-0.1646875 15.59316406 -0.1646875 15.59316406 0.6875 16.8359375 C2 19 2 19 2 21 C-1.68802044 19.77065985 -2.72356973 18.06140622 -5 15 C-5.33 16.98 -5.66 18.96 -6 21 C-6.66 21 -7.32 21 -8 21 C-8.797837 14.30386804 -9.12910853 7.74233419 -9 1 C-5.98131566 -0.50934217 -3.32702771 -0.17510672 0 0 Z " fill="#6B532F" transform="translate(142,134)"/>
<path d="M0 0 C2.9375 0.375 2.9375 0.375 4.9375 2.375 C5.23828125 4.65234375 5.23828125 4.65234375 5.25 7.3125 C5.26675781 8.18777344 5.28351563 9.06304687 5.30078125 9.96484375 C4.9375 12.375 4.9375 12.375 3.57421875 14.16796875 C1.24121598 15.88848869 -0.23421022 15.79924347 -3.0625 15.375 C-4.875 14.375 -4.875 14.375 -6.0625 12.375 C-6.45424433 8.26168458 -6.62627991 5.62784424 -4.9375 1.875 C-3.0625 0.375 -3.0625 0.375 0 0 Z " fill="#C7AF7C" transform="translate(125.0625,138.625)"/>
<path d="M0 0 C2.97 0 5.94 0 9 0 C9.66 0.66 10.32 1.32 11 2 C10.81511956 4.86564686 10.20773139 5.81237165 8.0625 7.75 C6 9 6 9 4 9 C5.65 12.3 7.3 15.6 9 19 C5 18 5 18 3 15 C2.67 16.65 2.34 18.3 2 20 C1.34 20 0.68 20 0 20 C0 13.4 0 6.8 0 0 Z " fill="#614927" transform="translate(85,164)"/>
<path d="M0 0 C0.66 0 1.32 0 2 0 C2 6.93 2 13.86 2 21 C1.01 21 0.02 21 -1 21 C-1.33 16.38 -1.66 11.76 -2 7 C-2.99 8.485 -2.99 8.485 -4 10 C-4.66 10 -5.32 10 -6 10 C-6.66 8.68 -7.32 7.36 -8 6 C-8.33 10.95 -8.66 15.9 -9 21 C-9.66 21 -10.32 21 -11 21 C-11 14.4 -11 7.8 -11 1 C-10.01 1 -9.02 1 -8 1 C-7.34 2.65 -6.68 4.3 -6 6 C-5.195625 5.195625 -4.39125 4.39125 -3.5625 3.5625 C-2.375 2.375 -1.1875 1.1875 0 0 Z " fill="#68502D" transform="translate(91,138)"/>
<path d="M0 0 C0.99 0.33 1.98 0.66 3 1 C3.89135742 2.91772461 3.89135742 2.91772461 4.60546875 5.40234375 C4.86650391 6.29244141 5.12753906 7.18253906 5.39648438 8.09960938 C5.65751953 9.03611328 5.91855469 9.97261719 6.1875 10.9375 C6.46013672 11.87013672 6.73277344 12.80277344 7.01367188 13.76367188 C9 20.64861372 9 20.64861372 9 23 C8.01 23 7.02 23 6 23 C5.67 20.36 5.34 17.72 5 15 C2.69 15 0.38 15 -2 15 C-2.33 17.97 -2.66 20.94 -3 24 C-3.66 24 -4.32 24 -5 24 C-3.66908213 3.66908213 -3.66908213 3.66908213 0 0 Z " fill="#705833" transform="translate(166,84)"/>
<path d="M0 0 C4.875 0.875 4.875 0.875 6 2 C6.203125 4.1796875 6.203125 4.1796875 6.25 6.875 C6.28867188 8.20144531 6.28867188 8.20144531 6.328125 9.5546875 C6 12 6 12 4.64453125 13.796875 C2.31868807 15.49844198 0.80727203 15.431888 -2 15 C-4.4915904 11.2626144 -4.45793285 9.42668417 -4 5 C-2 2.0625 -2 2.0625 0 0 Z " fill="#C9B17D" transform="translate(133,64)"/>
<path d="M0 0 C1.91015625 0.23046875 1.91015625 0.23046875 3.91015625 2.23046875 C3.84765625 4.66796875 3.84765625 4.66796875 2.91015625 7.23046875 C-1.12432651 10.23046875 -1.12432651 10.23046875 -4.08984375 10.23046875 C-3.65671875 11.06191406 -3.65671875 11.06191406 -3.21484375 11.91015625 C-2.65796875 12.99683594 -2.65796875 12.99683594 -2.08984375 14.10546875 C-1.71859375 14.82476562 -1.34734375 15.5440625 -0.96484375 16.28515625 C-0.08984375 18.23046875 -0.08984375 18.23046875 -0.08984375 20.23046875 C-1.07984375 19.90046875 -2.06984375 19.57046875 -3.08984375 19.23046875 C-4.27734375 16.66796875 -4.27734375 16.66796875 -5.08984375 14.23046875 C-5.41984375 16.21046875 -5.74984375 18.19046875 -6.08984375 20.23046875 C-6.41984375 20.23046875 -6.74984375 20.23046875 -7.08984375 20.23046875 C-7.11872889 17.08465452 -7.13660298 13.93887406 -7.15234375 10.79296875 C-7.16072266 9.89513672 -7.16910156 8.99730469 -7.17773438 8.07226562 C-7.18095703 7.21826172 -7.18417969 6.36425781 -7.1875 5.484375 C-7.19535522 4.29823608 -7.19535522 4.29823608 -7.20336914 3.08813477 C-6.94438517 -1.14973412 -3.48446632 0.06956285 0 0 Z " fill="#7D653E" transform="translate(118.08984375,161.76953125)"/>
<path d="M0 0 C1.32 0.33 2.64 0.66 4 1 C4.67099984 3.60311992 5.33695338 6.20735398 6 8.8125 C6.19078125 9.55048828 6.3815625 10.28847656 6.578125 11.04882812 C7.35262914 14.10535341 8 16.83373478 8 20 C7.34 20 6.68 20 6 20 C5.67 17.69 5.34 15.38 5 13 C3.02 13 1.04 13 -1 13 C-1.66 15.31 -2.32 17.62 -3 20 C-3.66 20 -4.32 20 -5 20 C-4.0026554 12.95992045 -2.7758018 6.56098608 0 0 Z " fill="#816942" transform="translate(125,162)"/>
<path d="M0 0 C0.99 0.33 1.98 0.66 3 1 C3.79956055 2.85766602 3.79956055 2.85766602 4.38671875 5.25390625 C4.60263672 6.10791016 4.81855469 6.96191406 5.04101562 7.84179688 C5.25435547 8.73962891 5.46769531 9.63746094 5.6875 10.5625 C5.91244141 11.46419922 6.13738281 12.36589844 6.36914062 13.29492188 C6.92430058 15.5273736 7.4673167 17.76209786 8 20 C7.34 20.33 6.68 20.66 6 21 C4.5393715 18.35261084 4 17.10551666 4 14 C2.35 14.33 0.7 14.66 -1 15 C-1.33 17.31 -1.66 19.62 -2 22 C-2.99 22 -3.98 22 -5 22 C-4.35259036 17.15687791 -3.51971256 12.40745191 -2.5 7.625 C-2.2421875 6.40039062 -1.984375 5.17578125 -1.71875 3.9140625 C-1 1 -1 1 0 0 Z " fill="#634B28" transform="translate(160,132)"/>
<path d="M0 0 C1 1 1 1 1.3125 4.875 C1.27136492 8.70056285 1.27136492 8.70056285 -0.8125 11 C-3 12 -3 12 -6 12 C-6 14.31 -6 16.62 -6 19 C-6.66 19 -7.32 19 -8 19 C-8 12.73 -8 6.46 -8 0 C-5.11795733 -1.44102133 -3.08226581 -0.65580124 0 0 Z " fill="#6F5732" transform="translate(86,70)"/>
<path d="M0 0 C3 0 3 0 5.1875 2 C5.785625 2.66 6.38375 3.32 7 4 C7.6496875 3.01 7.6496875 3.01 8.3125 2 C8.869375 1.34 9.42625 0.68 10 0 C10.99 0 11.98 0 13 0 C13 6.6 13 13.2 13 20 C12.34 20 11.68 20 11 20 C10.67 14.72 10.34 9.44 10 4 C9.01 5.32 8.02 6.64 7 8 C6.01 7.67 5.02 7.34 4 7 C3.67 6.34 3.34 5.68 3 5 C2.67 10.28 2.34 15.56 2 21 C1.34 21 0.68 21 0 21 C0 14.07 0 7.14 0 0 Z " fill="#69512E" transform="translate(103,137)"/>
<path d="M0 0 C0.66 0 1.32 0 2 0 C2.08703823 3.43734063 2.14040272 6.87439837 2.1875 10.3125 C2.22520508 11.77719727 2.22520508 11.77719727 2.26367188 13.27148438 C2.27817383 14.67817383 2.27817383 14.67817383 2.29296875 16.11328125 C2.31653442 17.40939331 2.31653442 17.40939331 2.34057617 18.73168945 C2 21 2 21 0.70043945 22.77807617 C-2.16455495 24.836841 -4.61067507 24.42366562 -8 24 C-10.18516778 22.18486064 -10.92133179 20.70957409 -11.23388672 17.89038086 C-11.29578736 15.33685159 -11.2610401 12.80316153 -11.1875 10.25 C-11.17396484 9.36183594 -11.16042969 8.47367188 -11.14648438 7.55859375 C-11.11121309 5.37177422 -11.06192752 3.18620034 -11 1 C-10.34 1 -9.68 1 -9 1 C-8.67 7.6 -8.34 14.2 -8 21 C-6.02 21 -4.04 21 -2 21 C-0.41596476 19.41596476 -0.78025065 17.7228362 -0.68359375 15.52734375 C-0.64169922 14.62822266 -0.59980469 13.72910156 -0.55664062 12.80273438 C-0.51732422 11.85720703 -0.47800781 10.91167969 -0.4375 9.9375 C-0.39431641 8.98810547 -0.35113281 8.03871094 -0.30664062 7.06054688 C-0.20020724 4.70718647 -0.09818992 2.35371646 0 0 Z " fill="#6B532E" transform="translate(102,92)"/>
<path d="M0 0 C0.99 0.33 1.98 0.66 3 1 C4.19382927 4.58148781 4.24203361 7.59948526 4.3125 11.375 C4.34988281 12.68210937 4.38726562 13.98921875 4.42578125 15.3359375 C3.93848137 19.52939882 3.05941544 21.14129089 0 24 C-3.5625 24.5625 -3.5625 24.5625 -7 24 C-9.27844139 21.75822319 -9.95004813 20.42161757 -10.328125 17.23046875 C-10.30234375 16.22628906 -10.2765625 15.22210938 -10.25 14.1875 C-10.22421875 13.13433594 -10.1984375 12.08117187 -10.171875 10.99609375 C-9.97704123 7.59978697 -9.60822182 4.34522003 -9 1 C-8.34 1 -7.68 1 -7 1 C-7.00523682 1.56509277 -7.01047363 2.13018555 -7.01586914 2.71240234 C-7.03662422 5.2665903 -7.0496554 7.82076053 -7.0625 10.375 C-7.07087891 11.26445313 -7.07925781 12.15390625 -7.08789062 13.0703125 C-7.09111328 13.92109375 -7.09433594 14.771875 -7.09765625 15.6484375 C-7.10289307 16.43395996 -7.10812988 17.21948242 -7.11352539 18.02880859 C-7.12573953 20.07772668 -7.12573953 20.07772668 -6 22 C-4.35 22 -2.7 22 -1 22 C2.65549207 16.44365205 2.02052718 12.24441383 1 6 C0.814375 4.80375 0.62875 3.6075 0.4375 2.375 C0.293125 1.59125 0.14875 0.8075 0 0 Z " fill="#69512D" transform="translate(140,87)"/>
<path d="M0 0 C2.9375 0.625 2.9375 0.625 5.3125 2 C7.83600984 6.07643898 7.67561478 9.96282604 6.9375 14.625 C5.3125 17.75 5.3125 17.75 2.9375 19.625 C0 20.25 0 20.25 -3.0625 19.625 C-5.9375 17.625 -5.9375 17.625 -8.0625 14.625 C-8.68846522 10.6814191 -8.91538065 8.3343752 -7.140625 4.77734375 C-5.04528679 1.89965523 -3.48462178 0.7111473 0 0 Z M-4.9375 4.125 C-6.62627991 7.87784424 -6.45424433 10.51168458 -6.0625 14.625 C-5.18379086 16.837981 -5.18379086 16.837981 -3.0625 17.625 C0.55212786 17.54921045 0.55212786 17.54921045 3.9375 16.625 C5.17637548 14.14724905 5.10491669 12.38846293 5.125 9.625 C5.13917969 8.738125 5.15335938 7.85125 5.16796875 6.9375 C5.16463126 4.42980016 5.16463126 4.42980016 2.9375 2.625 C-0.40168225 2.19872141 -2.25321848 1.97757479 -4.9375 4.125 Z " fill="#6B532F" transform="translate(125.0625,136.375)"/>
<path d="M0 0 C0 0.66 0 1.32 0 2 C-1.65 2 -3.3 2 -5 2 C-5 9.59 -5 17.18 -5 25 C-5.99 25 -6.98 25 -8 25 C-8 17.74 -8 10.48 -8 3 C-9.98 3 -11.96 3 -14 3 C-14 2.34 -14 1.68 -14 1 C-12.04175306 0.83232136 -10.08339945 0.66588795 -8.125 0.5 C-6.48917969 0.36078125 -6.48917969 0.36078125 -4.8203125 0.21875 C-3.21670436 0.09437042 -1.60842449 0 0 0 Z " fill="#6A522E" transform="translate(129,88)"/>
<path d="M0 0 C0.66 0 1.32 0 2 0 C2 5.61 2 11.22 2 17 C3.65 17 5.3 17 7 17 C8.52106634 13.95786733 8.37429338 10.71952428 8.5625 7.375 C8.60568359 6.66859375 8.64886719 5.9621875 8.69335938 5.234375 C8.79944751 3.48981463 8.90022889 1.74493303 9 0 C9.66 0.33 10.32 0.66 11 1 C11.054138 3.24973447 11.09285491 5.49984383 11.125 7.75 C11.14820312 9.00296875 11.17140625 10.2559375 11.1953125 11.546875 C11.01472805 14.73960816 10.79769093 16.41031936 9 19 C6.23749964 20.38125018 4.05268901 20.19079306 1 20 C-1 18 -1 18 -1.23046875 15.13671875 C-1.21628906 13.99847656 -1.20210938 12.86023438 -1.1875 11.6875 C-1.18105469 10.55699219 -1.17460938 9.42648438 -1.16796875 8.26171875 C-1.02015783 5.39143692 -0.65474022 2.79181228 0 0 Z " fill="#664E2B" transform="translate(98,163)"/>
<path d="M0 0 C2.0625 0.4375 2.0625 0.4375 4 1 C4 1.66 4 2.32 4 3 C4.66 3 5.32 3 6 3 C6 2.34 6 1.68 6 1 C6.99 1 7.98 1 9 1 C9.042721 2.66611905 9.04063832 4.33382885 9 6 C8 7 8 7 4.4375 7.0625 C3.303125 7.041875 2.16875 7.02125 1 7 C1.33 8.65 1.66 10.3 2 12 C1.01 12.66 0.02 13.32 -1 14 C-1 13.34 -1 12.68 -1 12 C-2.32 11.34 -3.64 10.68 -5 10 C-4.67 8.68 -4.34 7.36 -4 6 C-2.68 5.67 -1.36 5.34 0 5 C-0.2784375 4.0409375 -0.2784375 4.0409375 -0.5625 3.0625 C-0.706875 2.381875 -0.85125 1.70125 -1 1 C-0.67 0.67 -0.34 0.34 0 0 Z " fill="#503818" transform="translate(107,190)"/>
<path d="M0 0 C0.99 0 1.98 0 3 0 C3 7.26 3 14.52 3 22 C5.97 22 8.94 22 12 22 C9 24 9 24 0 24 C0 16.08 0 8.16 0 0 Z " fill="#715934" transform="translate(106,91)"/>
<path d="M0 0 C0.66 0 1.32 0 2 0 C1.67 4.62 1.34 9.24 1 14 C-0.65 14.33 -2.3 14.66 -4 15 C-6 13 -6 13 -6.375 10.125 C-6 7 -6 7 -4.125 4.625 C-2 3 -2 3 0 3 C0 2.01 0 1.02 0 0 Z " fill="#765E38" transform="translate(165,59)"/>
<path d="M0 0 C3.375 1 3.375 1 5.375 4 C5.98253535 8.21329709 5.73208531 11.99175913 4.3125 16 C2.375 18 2.375 18 -1.125 19 C-4.625 19 -4.625 19 -6.31640625 17.8359375 C-8.96662646 14.1177181 -8.18246571 9.3456986 -7.625 5 C-5.54991831 0.68383009 -4.8216367 0 0 0 Z M-4.875 4.0625 C-7.03415141 7.68678987 -7.08678176 9.84396413 -6.625 14 C-5.635 15.485 -5.635 15.485 -4.625 17 C-2.2818787 16.74438677 0.05343403 16.40729228 2.375 16 C3.61387548 13.52224905 3.54241669 11.76346293 3.5625 9 C3.57667969 8.113125 3.59085938 7.22625 3.60546875 6.3125 C3.60213126 3.80480016 3.60213126 3.80480016 1.375 2 C-2.64227705 1.54951691 -2.64227705 1.54951691 -4.875 4.0625 Z " fill="#6E5631" transform="translate(135.625,62)"/>
<path d="M0 0 C-0.33 0.66 -0.66 1.32 -1 2 C-2.32 2 -3.64 2 -5 2 C-5 7.94 -5 13.88 -5 20 C-5.66 20 -6.32 20 -7 20 C-7 14.39 -7 8.78 -7 3 C-8.65 3 -10.3 3 -12 3 C-12 8.61 -12 14.22 -12 20 C-12.33 20 -12.66 20 -13 20 C-13 14.06 -13 8.12 -13 2 C-7.78374381 0.50964109 -5.07210297 -0.24741966 0 0 Z " fill="#8D754B" transform="translate(127,63)"/>
<path d="M0 0 C1.2065625 0.0309375 1.2065625 0.0309375 2.4375 0.0625 C2.7675 0.7225 3.0975 1.3825 3.4375 2.0625 C1.766875 2.495625 1.766875 2.495625 0.0625 2.9375 C-3.56541092 3.75491329 -3.56541092 3.75491329 -5.5625 6.0625 C-5.8828522 8.82335062 -5.8828522 8.82335062 -5.8125 11.9375 C-5.82023437 13.51144531 -5.82023437 13.51144531 -5.828125 15.1171875 C-5.5700764 17.97849111 -5.0399449 19.63526909 -3.5625 22.0625 C-1.5825 22.0625 0.3975 22.0625 2.4375 22.0625 C1.7775 23.0525 1.1175 24.0425 0.4375 25.0625 C-2.375 24.875 -2.375 24.875 -5.5625 24.0625 C-9.26219298 19.30575188 -9.10796934 14.92690577 -8.99609375 9.109375 C-8.56605755 6.08749898 -8.25537224 4.91199728 -6.125 2.8125 C-5.279375 2.235 -4.43375 1.6575 -3.5625 1.0625 C-2.5625 0.0625 -2.5625 0.0625 0 0 Z " fill="#644C29" transform="translate(86.5625,92.9375)"/>
<path d="M0 0 C0 0.66 0 1.32 0 2 C-1.3921875 1.9071875 -1.3921875 1.9071875 -2.8125 1.8125 C-5.98395103 1.69105736 -5.98395103 1.69105736 -7.875 3.5 C-8.24625 3.995 -8.6175 4.49 -9 5 C-7.906875 5.103125 -6.81375 5.20625 -5.6875 5.3125 C-2 6 -2 6 -0.0625 7.125 C1.6712306 10.18452459 1.42145216 12.56817525 1 16 C-0.625 18.4375 -0.625 18.4375 -3 20 C-6.25 20.25 -6.25 20.25 -9 20 C-9.33 18.35 -9.66 16.7 -10 15 C-9.01 16.485 -9.01 16.485 -8 18 C-5.52733235 17.65555119 -5.52733235 17.65555119 -3 17 C-1.63376326 14.26752652 -1.871574 12.01801098 -2 9 C-3.96822886 7.03177114 -7.34808709 7.33751619 -10 7 C-10.33 5.68 -10.66 4.36 -11 3 C-7.48550811 -0.37391222 -4.73940561 -0.27342725 0 0 Z " fill="#6C5430" transform="translate(154,161)"/>
<path d="M0 0 C0 0.66 0 1.32 0 2 C-0.969375 2.28875 -1.93875 2.5775 -2.9375 2.875 C-6.10664203 3.64214682 -6.10664203 3.64214682 -7 6 C-5.88625 5.95875 -4.7725 5.9175 -3.625 5.875 C0 6 0 6 2 8 C2.27922749 10.93188861 2.47143881 13.15390647 2 16 C0.3125 18 0.3125 18 -2 19 C-4.75 19.1875 -4.75 19.1875 -7 19 C-7.33 17.68 -7.66 16.36 -8 15 C-7.34 15 -6.68 15 -6 15 C-5.67 15.66 -5.34 16.32 -5 17 C-2.96758273 16.36020151 -2.96758273 16.36020151 -1 15 C-0.27090544 12.56968481 0 10.52838375 0 8 C-2.64 8 -5.28 8 -8 8 C-8.33 6.35 -8.66 4.7 -9 3 C-5.92807025 0.26939578 -4.09590633 -0.34132553 0 0 Z " fill="#604825" transform="translate(151,60)"/>
<path d="M0 0 C1.134375 0.020625 2.26875 0.04125 3.4375 0.0625 C3.7675 1.7125 4.0975 3.3625 4.4375 5.0625 C3.31676138 5.90155565 2.19075453 6.73357831 1.0625 7.5625 C0.43601563 8.0265625 -0.19046875 8.490625 -0.8359375 8.96875 C-2.5625 10.0625 -2.5625 10.0625 -4.5625 10.0625 C-4.58939216 8.58343108 -4.60884621 7.10422517 -4.625 5.625 C-4.63660156 4.80128906 -4.64820313 3.97757812 -4.66015625 3.12890625 C-4.49001835 -0.47121162 -3.73687179 0.06555915 0 0 Z " fill="#C2AA78" transform="translate(152.5625,86.9375)"/>
<path d="M0 0 C1.4540625 0.0309375 1.4540625 0.0309375 2.9375 0.0625 C-0.0625 2.0625 -0.0625 2.0625 -2.0625 2.0625 C-2.0625 4.7025 -2.0625 7.3425 -2.0625 10.0625 C-0.7425 10.0625 0.5775 10.0625 1.9375 10.0625 C1.9375 10.7225 1.9375 11.3825 1.9375 12.0625 C0.6175 12.0625 -0.7025 12.0625 -2.0625 12.0625 C-1.7325 14.3725 -1.4025 16.6825 -1.0625 19.0625 C0.2575 19.0625 1.5775 19.0625 2.9375 19.0625 C2.9375 19.7225 2.9375 20.3825 2.9375 21.0625 C0.9575 21.0625 -1.0225 21.0625 -3.0625 21.0625 C-4.20195516 18.78358967 -4.19144214 17.49467896 -4.1953125 14.96484375 C-4.19660156 14.16369141 -4.19789062 13.36253906 -4.19921875 12.53710938 C-4.19535156 11.69986328 -4.19148438 10.86261719 -4.1875 10 C-4.19136719 9.15888672 -4.19523437 8.31777344 -4.19921875 7.45117188 C-4.18734814 0.08545608 -4.18734814 0.08545608 0 0 Z " fill="#715934" transform="translate(98.0625,136.9375)"/>
<path d="M0 0 C0.99 0.33 1.98 0.66 3 1 C3.765625 2.99609375 3.765625 2.99609375 4.25 5.4375 C4.42015625 6.24058594 4.5903125 7.04367188 4.765625 7.87109375 C5 10 5 10 4 12 C2.35 12 0.7 12 -1 12 C-2.11658501 7.31034294 -1.80619523 4.46236469 0 0 Z " fill="#765E38" transform="translate(160,132)"/>
<path d="M0 0 C0.99 0 1.98 0 3 0 C3 0.99 3 1.98 3 3 C2.34 3 1.68 3 1 3 C0.814375 4.4540625 0.814375 4.4540625 0.625 5.9375 C0.18459952 8.92855327 -0.30491216 11.90579251 -0.875 14.875 C-1.01679687 15.63554687 -1.15859375 16.39609375 -1.3046875 17.1796875 C-1.53414063 17.78039062 -1.76359375 18.38109375 -2 19 C-2.99 19.33 -3.98 19.66 -5 20 C-4.0026554 12.95992045 -2.7758018 6.56098608 0 0 Z " fill="#654D2A" transform="translate(125,162)"/>
<path d="M0 0 C0 6.6 0 13.2 0 20 C-0.66 20 -1.32 20 -2 20 C-2.33 14.72 -2.66 9.44 -3 4 C-3.99 4.99 -4.98 5.98 -6 7 C-6.66 6.67 -7.32 6.34 -8 6 C-6.1410603 2.28212059 -4.24503077 0 0 0 Z " fill="#6D5531" transform="translate(116,137)"/>
<path d="M0 0 C2.31 0 4.62 0 7 0 C6.01 0.495 6.01 0.495 5 1 C5 7.27 5 13.54 5 20 C5.66 20.33 6.32 20.66 7 21 C5.68 21 4.36 21 3 21 C3 14.73 3 8.46 3 2 C2.01 2 1.02 2 0 2 C0 1.34 0 0.68 0 0 Z " fill="#735B36" transform="translate(146,133)"/>
<path d="M0 0 C2.31 0 4.62 0 7 0 C6.01 0.33 5.02 0.66 4 1 C4 6.94 4 12.88 4 19 C4.66 19.33 5.32 19.66 6 20 C4.35 20 2.7 20 1 20 C1.495 11.09 1.495 11.09 2 2 C1.34 2 0.68 2 0 2 C0 1.34 0 0.68 0 0 Z " fill="#705833" transform="translate(135,161)"/>
<path d="M0 0 C0.66 0 1.32 0 2 0 C2 3.3 2 6.6 2 10 C2.66 10 3.32 10 4 10 C4 10.66 4 11.32 4 12 C3.34 12 2.68 12 2 12 C2 15.63 2 19.26 2 23 C1.34 23 0.68 23 0 23 C0 15.41 0 7.82 0 0 Z " fill="#5D4523" transform="translate(146,87)"/>
<path d="M0 0 C1.65 0 3.3 0 5 0 C5.75 2.75 5.75 2.75 6 6 C4.1875 8.375 4.1875 8.375 2 10 C1.34 10 0.68 10 0 10 C0 6.7 0 3.4 0 0 Z " fill="#C8B07D" transform="translate(80,71)"/>
<path d="M0 0 C0.99 0.33 1.98 0.66 3 1 C2.34 1 1.68 1 1 1 C1 3.31 1 5.62 1 8 C1.66 8 2.32 8 3 8 C3.67119549 9.4562545 4.33681807 10.91507867 5 12.375 C5.556875 13.59316406 5.556875 13.59316406 6.125 14.8359375 C7 17 7 17 7 19 C6.01 18.67 5.02 18.34 4 18 C2.8125 15.4375 2.8125 15.4375 2 13 C1.67 14.98 1.34 16.96 1 19 C0.67 19 0.34 19 0 19 C0 12.73 0 6.46 0 0 Z " fill="#543C1C" transform="translate(111,163)"/>
<path d="M0 0 C2.64 0 5.28 0 8 0 C7.8125 1.8125 7.8125 1.8125 7 4 C2.82142857 7 2.82142857 7 0 7 C0 4.69 0 2.38 0 0 Z " fill="#C2AA78" transform="translate(135,136)"/>
<path d="M0 0 C-0.33 1.65 -0.66 3.3 -1 5 C-2.65 5.33 -4.3 5.66 -6 6 C-5.67 6.99 -5.34 7.98 -5 9 C-3.68 9 -2.36 9 -1 9 C-1 9.66 -1 10.32 -1 11 C-2.66611905 11.042721 -4.33382885 11.04063832 -6 11 C-7 10 -7 10 -7.25 6.625 C-7 3 -7 3 -5.75 1.0625 C-4 0 -4 0 0 0 Z " fill="#8E764C" transform="translate(175,61)"/>
<path d="M0 0 C1.98 0 3.96 0 6 0 C6 1.32 6 2.64 6 4 C2.78571429 7 2.78571429 7 0 7 C0 4.69 0 2.38 0 0 Z " fill="#C4AC79" transform="translate(87,165)"/>
<path d="M0 0 C0.66 0 1.32 0 2 0 C2.29296875 6.0546875 2.29296875 6.0546875 2 8 C1.01 8.66 0.02 9.32 -1 10 C-1.66 9.34 -2.32 8.68 -3 8 C-2.54545455 2.54545455 -2.54545455 2.54545455 0 0 Z " fill="#C2AA78" transform="translate(163,63)"/>
<path d="M0 0 C2.31 0 4.62 0 7 0 C6.01 0.495 6.01 0.495 5 1 C5.33 2.65 5.66 4.3 6 6 C5.01 6.66 4.02 7.32 3 8 C3 7.34 3 6.68 3 6 C1.68 5.34 0.36 4.68 -1 4 C-0.67 2.68 -0.34 1.36 0 0 Z " fill="#59411F" transform="translate(103,196)"/>
<path d="M0 0 C2.31 0 4.62 0 7 0 C7 1.32 7 2.64 7 4 C4.35261084 5.4606285 3.10551666 6 0 6 C0 4.02 0 2.04 0 0 Z " fill="#C9B17D" transform="translate(113,164)"/>
<path d="M0 0 C1.32 0.33 2.64 0.66 4 1 C3.34 1 2.68 1 2 1 C2.0721875 2.12019531 2.144375 3.24039063 2.21875 4.39453125 C2.31254956 5.86718434 2.40629683 7.33984077 2.5 8.8125 C2.54769531 9.55048828 2.59539062 10.28847656 2.64453125 11.04882812 C2.83390613 14.03824588 3 17.00374574 3 20 C2.34 20 1.68 20 1 20 C0.202163 13.30386804 -0.12910853 6.74233419 0 0 Z " fill="#5C4423" transform="translate(133,135)"/>
<path d="M0 0 C1.2065625 0.0309375 1.2065625 0.0309375 2.4375 0.0625 C2.7675 0.7225 3.0975 1.3825 3.4375 2.0625 C1.766875 2.495625 1.766875 2.495625 0.0625 2.9375 C-3.56541092 3.75491329 -3.56541092 3.75491329 -5.5625 6.0625 C-6.02256346 8.26500992 -6.02256346 8.26500992 -6.1875 10.6875 C-6.26226562 11.50476563 -6.33703125 12.32203125 -6.4140625 13.1640625 C-6.46304688 13.79054688 -6.51203125 14.41703125 -6.5625 15.0625 C-6.8925 15.0625 -7.2225 15.0625 -7.5625 15.0625 C-8.22877145 12.03459311 -8.70295976 9.16822128 -8.5625 6.0625 C-6.1875 3.0625 -6.1875 3.0625 -3.5625 1.0625 C-2.5625 0.0625 -2.5625 0.0625 0 0 Z " fill="#78603A" transform="translate(86.5625,92.9375)"/>
<path d="M0 0 C0 0.66 0 1.32 0 2 C-0.969375 2.28875 -1.93875 2.5775 -2.9375 2.875 C-6.10664203 3.64214682 -6.10664203 3.64214682 -7 6 C-4.03 6.495 -4.03 6.495 -1 7 C-1 7.33 -1 7.66 -1 8 C-3.31 8 -5.62 8 -8 8 C-8.33 6.35 -8.66 4.7 -9 3 C-5.92807025 0.26939578 -4.09590633 -0.34132553 0 0 Z " fill="#6A522E" transform="translate(151,60)"/>
<path d="M0 0 C0.33 0 0.66 0 1 0 C1 6.27 1 12.54 1 19 C0.01 19 -0.98 19 -2 19 C-3.0625 17.1875 -3.0625 17.1875 -4 15 C-3.67 14.01 -3.34 13.02 -3 12 C-2.01 13.485 -2.01 13.485 -1 15 C-0.67 10.05 -0.34 5.1 0 0 Z " fill="#523A1A" transform="translate(113,65)"/>
<path d="M0 0 C0 0.66 0 1.32 0 2 C-1.3921875 1.9071875 -1.3921875 1.9071875 -2.8125 1.8125 C-5.98395103 1.69105736 -5.98395103 1.69105736 -7.875 3.5 C-8.24625 3.995 -8.6175 4.49 -9 5 C-7.35 5 -5.7 5 -4 5 C-4 5.66 -4 6.32 -4 7 C-5.98 7 -7.96 7 -10 7 C-10.33 5.68 -10.66 4.36 -11 3 C-7.48550811 -0.37391222 -4.73940561 -0.27342725 0 0 Z " fill="#7E663F" transform="translate(154,161)"/>
<path d="M0 0 C-0.33 0.66 -0.66 1.32 -1 2 C-2.32 2 -3.64 2 -5 2 C-5 7.61 -5 13.22 -5 19 C-5.33 19 -5.66 19 -6 19 C-6 13.39 -6 7.78 -6 2 C-6.99 1.67 -7.98 1.34 -9 1 C-5.8035914 -0.06546953 -3.34252724 -0.07427838 0 0 Z " fill="#674F2C" transform="translate(127,63)"/>
<path d="M0 0 C2.31 0 4.62 0 7 0 C6.67 1.32 6.34 2.64 6 4 C4.125 4.625 4.125 4.625 2 5 C1.34 4.34 0.68 3.68 0 3 C0 2.01 0 1.02 0 0 Z " fill="#B59D6D" transform="translate(108,197)"/>
<path d="M0 0 C1.4540625 0.0309375 1.4540625 0.0309375 2.9375 0.0625 C-0.0625 2.0625 -0.0625 2.0625 -2.0625 2.0625 C-2.02125 3.320625 -1.98 4.57875 -1.9375 5.875 C-1.8234626 9.35314073 -2.00324319 9.97361478 -4.0625 13.0625 C-4.08936553 11.08340602 -4.10883375 9.10421029 -4.125 7.125 C-4.13660156 6.02285156 -4.14820312 4.92070312 -4.16015625 3.78515625 C-4.02168594 -0.07539595 -3.9087853 0.07977113 0 0 Z " fill="#816941" transform="translate(98.0625,136.9375)"/>
<path d="M0 0 C1.9451 2.91765 2.45276317 4.62537285 3 8 C1.35 8.33 -0.3 8.66 -2 9 C-1.125 1.125 -1.125 1.125 0 0 Z " fill="#C7AF7C" transform="translate(167,89)"/>
<path d="M0 0 C6.625 -0.25 6.625 -0.25 10 2 C9.67 3.65 9.34 5.3 9 7 C8.01 7 7.02 7 6 7 C6.66 5.35 7.32 3.7 8 2 C7.05125 2.04125 6.1025 2.0825 5.125 2.125 C2 2 2 2 0 0 Z " fill="#715934" transform="translate(135,134)"/>
<path d="M0 0 C2.0625 0.4375 2.0625 0.4375 4 1 C4 2.65 4 4.3 4 6 C2.68 5.67 1.36 5.34 0 5 C-0.5625 3.0625 -0.5625 3.0625 -1 1 C-0.67 0.67 -0.34 0.34 0 0 Z " fill="#563E1E" transform="translate(113,202)"/>
<path d="M0 0 C0.33 0 0.66 0 1 0 C2.0161692 4.62921525 1.83796731 8.34462607 1 13 C0.01 13 -0.98 13 -2 13 C-1.39174965 8.65535464 -0.73832608 4.32448133 0 0 Z " fill="#775F39" transform="translate(157,141)"/>
<path d="M0 0 C0.99 0 1.98 0 3 0 C5 3 5 3 5 6 C5.66 6 6.32 6 7 6 C7 6.66 7 7.32 7 8 C6.01 7.67 5.02 7.34 4 7 C3.3125 4.9375 3.3125 4.9375 3 3 C2.34 3 1.68 3 1 3 C1 4.65 1 6.3 1 8 C0.67 8 0.34 8 0 8 C0 5.36 0 2.72 0 0 Z " fill="#5F4725" transform="translate(103,137)"/>
<path d="M0 0 C1.45792884 -0.05399736 2.91642712 -0.09279177 4.375 -0.125 C5.18710938 -0.14820313 5.99921875 -0.17140625 6.8359375 -0.1953125 C9 0 9 0 11 2 C10.625 4.125 10.625 4.125 10 6 C9.01 6 8.02 6 7 6 C7.33 4.68 7.66 3.36 8 2 C5.36 1.67 2.72 1.34 0 1 C0 0.67 0 0.34 0 0 Z " fill="#6C5430" transform="translate(85,164)"/>
<path d="M0 0 C2.64465038 3.1254959 3.84414715 6.08788267 5 10 C2 9 2 9 1.05078125 7.15234375 C0.80714844 6.42144531 0.56351562 5.69054687 0.3125 4.9375 C0.06113281 4.20402344 -0.19023438 3.47054687 -0.44921875 2.71484375 C-0.63097656 2.14894531 -0.81273438 1.58304688 -1 1 C-0.67 0.67 -0.34 0.34 0 0 Z " fill="#6A522E" transform="translate(113,172)"/>
<path d="M0 0 C0.66 0.33 1.32 0.66 2 1 C2.40729228 3.32156597 2.74438677 5.6568787 3 8 C1.68 8 0.36 8 -1 8 C-0.67 5.36 -0.34 2.72 0 0 Z " fill="#BFA776" transform="translate(160,136)"/>
<path d="M0 0 C0.33 0.66 0.66 1.32 1 2 C1.99 2.33 2.98 2.66 4 3 C2.68 4.32 1.36 5.64 0 7 C-0.66 5.68 -1.32 4.36 -2 3 C-1.34 2.01 -0.68 1.02 0 0 Z " fill="#5B4321" transform="translate(127,192)"/>
<path d="M0 0 C0.66 0 1.32 0 2 0 C2.33 2.31 2.66 4.62 3 7 C1.68 7 0.36 7 -1 7 C-0.67 4.69 -0.34 2.38 0 0 Z " fill="#C6AE7B" transform="translate(126,166)"/>
<path d="M0 0 C0 0.99 0 1.98 0 3 C-1 4 -1 4 -4.0625 4.0625 C-5.031875 4.041875 -6.00125 4.02125 -7 4 C-7.33 3.34 -7.66 2.68 -8 2 C-5.36 1.34 -2.72 0.68 0 0 Z " fill="#5E4624" transform="translate(129,152)"/>
<path d="M0 0 C1.98 0.495 1.98 0.495 4 1 C4 1.66 4 2.32 4 3 C2.35 3.66 0.7 4.32 -1 5 C-0.67 3.35 -0.34 1.7 0 0 Z " fill="#A38B5E" transform="translate(122,118)"/>
</svg>
